<?xml version="1.0" encoding="utf-8"?>
<!-- Generator: Adobe Illustrator 26.0.1, SVG Export Plug-In . SVG Version: 6.00 Build 0)  -->
<svg version="1.1" id="Layer_1" xmlns="http://www.w3.org/2000/svg" xmlns:xlink="http://www.w3.org/1999/xlink" x="0px" y="0px"
	 viewBox="0 0 2000 264.32" style="enable-background:new 0 0 2000 264.32;" xml:space="preserve">
<style type="text/css">
	.st0{fill:#FFFFFF;}
</style>
<g>
	<g>
		<path class="st0" d="M769.04,62.02v92.63c0,11.84-9.6,21.44-21.44,21.44H233.33c-9.85,0-18.98-5.17-24.05-13.62l-14.15-23.58
			c-2.68-4.45,0.53-10.12,5.73-10.12h145.32c15.93,0,30.69,8.36,38.89,22.02l2.06,3.43c4.33,7.23,12.15,11.66,20.59,11.66h153.76
			c0.34,0,0.68-0.01,1.02-0.03h79.39c11.38-0.53,20.43-9.91,20.43-21.42V53.15c0-5.99-4.86-10.85-10.85-10.85h-91.69
			c-8.64,0-16.64,4.53-21.08,11.93l-6.66,11.1c-1.69,2.82-4.74,4.55-8.04,4.55H362.57c-4.6,0-7.44-5.02-5.07-8.96l13.39-22.33
			c2.38-3.96,6.65-6.38,11.27-6.38h357.07C755.69,32.21,769.04,45.56,769.04,62.02z"/>
		<path class="st0" d="M1278.07,32.21v2.46c0,20.88-13.75,39.26-33.78,45.16l-135.24,39.81l-63.78,18.78l-82.1,24.18
			c-1.92,0.57-1.52,3.4,0.49,3.4h111.27c8.64,0,16.64-4.53,21.08-11.94l6.66-11.09c1.4-2.34,3.74-3.93,6.38-4.4
			c0.54-0.1,1.1-0.15,1.66-0.15h161.43c4.6,0,7.44,5.02,5.07,8.96l-13.39,22.33c-2.38,3.96-6.65,6.38-11.27,6.38H782.59v-3.11
			c0-20.49,13.5-38.54,33.15-44.32l199.64-58.78l82.24-24.21c1.9-0.56,1.5-3.37-0.49-3.37H985.72c-8.64,0-16.64,4.53-21.08,11.93
			l-6.66,11.1c-1.69,2.82-4.74,4.55-8.04,4.55H788.51c-3.46,0-5.92-2.84-5.92-5.93c0-1.01,0.26-2.05,0.85-3.03l13.39-22.33
			c2.38-3.96,6.65-6.38,11.27-6.38H1278.07z"/>
		<path class="st0" d="M1799.16,98.34h-143.33c-5.69,0-10.96-2.98-13.88-7.86l-17.7-29.52l-12.93-21.55l-0.49-0.82
			c-2.38-3.96-6.65-6.38-11.27-6.38h-277.68c-16.46,0-29.81,13.35-29.81,29.81v92.62c0,11.85,9.6,21.45,21.45,21.45h434.87
			c9.85,0,18.98-5.17,24.05-13.62l14.15-23.58l18.28-30.46c0.66-1.1,0.96-2.27,0.96-3.41
			C1805.83,101.54,1803.05,98.34,1799.16,98.34z M1398.79,53.15c0-5.99,4.86-10.85,10.85-10.85h45.68c8.64,0,16.64,4.53,21.08,11.93
			l5.59,9.31l0.07,0.12l0.03,0.06l11.83,20.85c3.48,6.15-0.96,13.77-8.03,13.77h-82.07c-2.78,0-5.03-2.25-5.03-5.03V53.15z
			 M1618.56,114.94l-21.05,34.48l-0.07,0.1l-1.82,2.99l-1.03,1.71c-4.33,7.23-12.15,11.66-20.59,11.66h-153.76
			c-11.84,0-21.45-9.6-21.45-21.45v-30.92c0-2.8,2.27-5.08,5.08-5.08h211.04C1618.25,108.43,1620.3,112.09,1618.56,114.94z"/>
	</g>
	<g>
		<path class="st0" d="M612.95,219.84c-1.09-0.48-2.04-1.12-2.86-1.94c-0.82-0.82-1.46-1.77-1.94-2.86
			c-0.48-1.09-0.71-2.27-0.71-3.54c0-1.27,0.24-2.45,0.71-3.54c0.48-1.09,1.12-2.04,1.94-2.86c0.82-0.82,1.77-1.46,2.86-1.94
			c1.09-0.48,2.27-0.71,3.54-0.71h41.28c0.91,0,1.68,0.32,2.31,0.95c0.63,0.64,0.95,1.41,0.95,2.31c0,0.91-0.32,1.68-0.95,2.31
			c-0.64,0.64-1.41,0.95-2.31,0.95h-41.41c-0.68,0-1.28,0.24-1.8,0.71c-0.52,0.48-0.78,1.08-0.78,1.8c0,0.68,0.26,1.27,0.78,1.77
			c0.52,0.5,1.12,0.75,1.8,0.75h37.6c1.27,0,2.46,0.24,3.57,0.71c1.11,0.48,2.07,1.12,2.89,1.94s1.46,1.78,1.94,2.89
			c0.48,1.11,0.71,2.3,0.71,3.57c0,1.27-0.24,2.45-0.71,3.54c-0.48,1.09-1.12,2.04-1.94,2.86s-1.78,1.45-2.89,1.9
			c-1.11,0.45-2.3,0.68-3.57,0.68h-41.21c-0.91,0-1.68-0.32-2.31-0.95c-0.64-0.63-0.95-1.4-0.95-2.31c0-0.91,0.32-1.68,0.95-2.31
			c0.63-0.63,1.4-0.95,2.31-0.95h41.48c0.68,0,1.27-0.24,1.77-0.71c0.5-0.48,0.75-1.05,0.75-1.73c0-0.72-0.25-1.34-0.75-1.84
			c-0.5-0.5-1.09-0.75-1.77-0.75h-37.74C615.21,220.55,614.03,220.31,612.95,219.84z"/>
		<path class="st0" d="M787.91,202.46c0.91,0,1.68,0.32,2.31,0.95c0.63,0.64,0.95,1.41,0.95,2.31c0,0.86-0.3,1.6-0.88,2.21
			c-0.59,0.61-1.29,0.96-2.11,1.05h-13.67c-1.36,0.09-2.48,0.42-3.37,0.99c-0.88,0.57-1.58,1.26-2.07,2.07
			c-0.5,0.82-0.84,1.7-1.02,2.65c-0.18,0.95-0.27,1.81-0.27,2.58v11.56c0,0.91-0.32,1.68-0.95,2.31c-0.64,0.64-1.41,0.95-2.31,0.95
			c-0.91,0-1.68-0.32-2.31-0.95c-0.64-0.63-0.95-1.4-0.95-2.31v-11.56c0-1.4,0.18-2.82,0.54-4.25c0.36-1.43,0.91-2.78,1.63-4.05
			h-22.3c-0.91,0-1.68-0.32-2.31-0.95c-0.64-0.63-0.95-1.4-0.95-2.31c0-0.91,0.32-1.68,0.95-2.31c0.63-0.63,1.4-0.95,2.31-0.95
			H787.91z"/>
		<path class="st0" d="M872.81,219.97c0.2,0.98,0.59,1.87,1.16,2.69c0.57,0.82,1.34,1.51,2.31,2.07c0.97,0.57,2.25,0.85,3.84,0.85
			h27.06c1.54,0,2.81-0.28,3.81-0.85c1-0.57,1.78-1.26,2.35-2.07c0.57-0.82,0.95-1.71,1.16-2.69c0.2-0.97,0.31-1.87,0.31-2.69
			v-11.56c0-0.91,0.32-1.68,0.95-2.31c0.63-0.63,1.4-0.95,2.31-0.95c0.91,0,1.68,0.32,2.31,0.95c0.63,0.64,0.95,1.41,0.95,2.31
			v11.56c0,1.72-0.28,3.46-0.85,5.2c-0.57,1.75-1.39,3.33-2.48,4.76c-1.09,1.43-2.4,2.6-3.94,3.5c-1.54,0.91-3.29,1.36-5.24,1.36
			h-31.01c-1.86-0.09-3.51-0.6-4.96-1.53c-1.45-0.93-2.69-2.1-3.71-3.5c-1.02-1.4-1.8-2.97-2.35-4.69c-0.54-1.72-0.82-3.42-0.82-5.1
			v-11.56c0-0.91,0.32-1.68,0.95-2.31c0.63-0.63,1.4-0.95,2.31-0.95c0.91,0,1.68,0.32,2.31,0.95c0.63,0.64,0.95,1.41,0.95,2.31
			v11.56C872.5,218.1,872.6,219,872.81,219.97z"/>
		<path class="st0" d="M1051.54,217.29c0,1.68-0.27,3.38-0.82,5.1c-0.54,1.72-1.33,3.29-2.35,4.69c-1.02,1.41-2.26,2.57-3.71,3.5
			c-1.45,0.93-3.11,1.44-4.96,1.53h-40.32c-0.91,0-1.68-0.32-2.31-0.95c-0.63-0.63-0.95-1.4-0.95-2.31v-23.12
			c0-0.91,0.32-1.68,0.95-2.31c0.63-0.63,1.41-0.95,2.31-0.95h39.64c1.95,0,3.69,0.45,5.24,1.36c1.54,0.91,2.86,2.07,3.94,3.5
			s1.91,3.02,2.48,4.76C1051.26,213.83,1051.54,215.56,1051.54,217.29z M1002.65,208.99v16.59h34.95c1.54,0,2.81-0.28,3.81-0.85
			c1-0.57,1.78-1.26,2.35-2.07c0.57-0.82,0.95-1.71,1.16-2.69c0.2-0.97,0.31-1.87,0.31-2.69s-0.1-1.71-0.31-2.69
			c-0.2-0.97-0.59-1.87-1.16-2.69c-0.57-0.82-1.35-1.51-2.35-2.07c-1-0.57-2.27-0.85-3.81-0.85H1002.65z"/>
		<path class="st0" d="M1131.92,231.16c-0.63,0.64-1.41,0.95-2.31,0.95c-0.91,0-1.68-0.32-2.31-0.95c-0.63-0.63-0.95-1.4-0.95-2.31
			v-23.12c0-0.91,0.32-1.68,0.95-2.31c0.63-0.63,1.41-0.95,2.31-0.95c0.91,0,1.68,0.32,2.31,0.95c0.63,0.64,0.95,1.41,0.95,2.31
			v23.12C1132.87,229.75,1132.55,230.52,1131.92,231.16z"/>
		<path class="st0" d="M1263.02,217.29c0,1.72-0.28,3.46-0.85,5.2c-0.57,1.75-1.39,3.33-2.48,4.76c-1.09,1.43-2.4,2.6-3.94,3.5
			c-1.54,0.91-3.29,1.36-5.24,1.36h-31.01c-1.86-0.09-3.51-0.6-4.96-1.53c-1.45-0.93-2.69-2.1-3.71-3.5
			c-1.02-1.4-1.8-2.97-2.35-4.69c-0.54-1.72-0.82-3.42-0.82-5.1c0-1.72,0.28-3.46,0.85-5.2c0.57-1.74,1.39-3.33,2.48-4.76
			c1.09-1.43,2.4-2.59,3.94-3.5c1.54-0.91,3.29-1.36,5.24-1.36h31.01c1.86,0.09,3.51,0.6,4.96,1.53c1.45,0.93,2.69,2.1,3.71,3.5
			c1.02,1.41,1.8,2.97,2.35,4.69C1262.75,213.91,1263.02,215.61,1263.02,217.29z M1252.89,224.73c1-0.57,1.78-1.26,2.35-2.07
			c0.57-0.82,0.95-1.71,1.16-2.69c0.2-0.97,0.31-1.87,0.31-2.69s-0.1-1.71-0.31-2.69c-0.2-0.97-0.59-1.87-1.16-2.69
			c-0.57-0.82-1.35-1.51-2.35-2.07c-1-0.57-2.27-0.85-3.81-0.85h-27.47c-1.59,0-2.87,0.28-3.84,0.85c-0.98,0.57-1.75,1.26-2.31,2.07
			c-0.57,0.82-0.95,1.71-1.16,2.69c-0.2,0.98-0.31,1.87-0.31,2.69s0.1,1.71,0.31,2.69c0.2,0.98,0.59,1.87,1.16,2.69
			c0.57,0.82,1.34,1.51,2.31,2.07c0.97,0.57,2.25,0.85,3.84,0.85h27.47C1250.62,225.58,1251.89,225.3,1252.89,224.73z"/>
		<path class="st0" d="M1341.09,208.99c-0.91,0-1.68-0.32-2.31-0.95c-0.63-0.63-0.95-1.4-0.95-2.31c0-0.91,0.32-1.68,0.95-2.31
			c0.63-0.63,1.41-0.95,2.31-0.95h44.95c1.81,0,3.35,0.64,4.62,1.9c1.27,1.27,1.9,2.81,1.9,4.62c0,1.54-0.45,2.89-1.36,4.05
			c-0.91,1.16-2.06,1.92-3.47,2.28l-38.15,9.04c-1.09,0.27-1.63,0.52-1.63,0.75c0,0.32,0.97,0.48,2.92,0.48h38.42
			c0.91,0,1.68,0.32,2.31,0.95c0.63,0.64,0.95,1.41,0.95,2.31c0,0.91-0.32,1.68-0.95,2.31c-0.64,0.64-1.41,0.95-2.31,0.95h-44.95
			c-1.81,0-3.36-0.63-4.62-1.9c-1.27-1.27-1.9-2.81-1.9-4.62c0-1.4,0.38-2.7,1.16-3.88c0.77-1.18,1.81-1.93,3.13-2.24l38.76-9.11
			c0.72-0.23,1.09-0.45,1.09-0.68c0-0.45-0.82-0.68-2.45-0.68H1341.09z"/>
	</g>
</g>
</svg>
