<?xml version="1.0" encoding="utf-8"?>

<!-- Generator: Adobe Illustrator 26.0.1, SVG Export Plug-In . SVG Version: 6.00 Build 0)  -->

<svg version="1.1" id="Layer_1" xmlns="http://www.w3.org/2000/svg" xmlns:xlink="http://www.w3.org/1999/xlink" x="0px" y="0px"

viewBox="0 0 2000 197" style="enable-background:new 0 0 2000 197;" xml:space="preserve">

<style type="text/css">

.st0{fill:#FFFFFF;}

</style>

<g>

<path class="st0" d="M769.04,56.37V149c0,11.84-9.6,21.44-21.44,21.44H233.33c-9.85,0-18.98-5.17-24.05-13.62l-14.15-23.58

c-2.68-4.45,0.53-10.12,5.73-10.12h145.32c15.93,0,30.69,8.36,38.89,22.02l2.06,3.43c4.33,7.23,12.15,11.66,20.59,11.66h153.76

c0.34,0,0.68-0.01,1.02-0.03h79.39c11.38-0.53,20.43-9.91,20.43-21.42V47.5c0-5.99-4.86-10.85-10.85-10.85h-91.69

c-8.64,0-16.64,4.53-21.08,11.93l-6.66,11.1c-1.69,2.82-4.74,4.55-8.04,4.55H362.57c-4.6,0-7.44-5.02-5.07-8.96l13.39-22.33

c2.38-3.96,6.65-6.38,11.27-6.38h357.07C755.69,26.56,769.04,39.91,769.04,56.37z"/>

<path class="st0" d="M1278.07,26.56v2.46c0,20.88-13.75,39.26-33.78,45.16l-135.24,39.81l-63.78,18.78l-82.1,24.18

c-1.92,0.57-1.52,3.4,0.49,3.4h111.27c8.64,0,16.64-4.53,21.08-11.94l6.66-11.09c1.4-2.34,3.74-3.93,6.38-4.4

c0.54-0.1,1.1-0.15,1.66-0.15h161.43c4.6,0,7.44,5.02,5.07,8.96l-13.39,22.33c-2.38,3.96-6.65,6.38-11.27,6.38H782.59v-3.11

c0-20.49,13.5-38.54,33.15-44.32l199.64-58.78l82.24-24.21c1.9-0.56,1.5-3.37-0.49-3.37H985.72c-8.64,0-16.64,4.53-21.08,11.93

l-6.66,11.1c-1.69,2.82-4.74,4.55-8.04,4.55H788.51c-3.46,0-5.92-2.84-5.92-5.93c0-1.01,0.26-2.05,0.85-3.03l13.39-22.33

c2.38-3.96,6.65-6.38,11.27-6.38H1278.07z"/>

<path class="st0" d="M1799.16,92.69h-143.33c-5.69,0-10.96-2.98-13.88-7.86l-17.7-29.52l-12.93-21.55l-0.49-0.82

c-2.38-3.96-6.65-6.38-11.27-6.38h-277.68c-16.46,0-29.81,13.35-29.81,29.81v92.62c0,11.85,9.6,21.45,21.45,21.45h434.87

c9.85,0,18.98-5.17,24.05-13.62l14.15-23.58l18.28-30.46c0.66-1.1,0.96-2.27,0.96-3.41C1805.83,95.89,1803.05,92.69,1799.16,92.69z

M1398.79,47.5c0-5.99,4.86-10.85,10.85-10.85h45.68c8.64,0,16.64,4.53,21.08,11.93l5.59,9.31l0.07,0.12l0.03,0.06l11.83,20.85

c3.48,6.15-0.96,13.77-8.03,13.77h-82.07c-2.78,0-5.03-2.25-5.03-5.03V47.5z M1618.56,109.29l-21.05,34.48l-0.07,0.1l-1.82,2.99

l-1.03,1.71c-4.33,7.23-12.15,11.66-20.59,11.66h-153.76c-11.84,0-21.45-9.6-21.45-21.45v-30.92c0-2.8,2.27-5.08,5.08-5.08h211.04

C1618.25,102.78,1620.3,106.44,1618.56,109.29z"/>

</g>

</svg>